<svg xmlns="http://www.w3.org/2000/svg" viewBox="0 0 95.41 95.21"><defs><style>.cls-1{fill:#25c2b9;}</style></defs><g id="Layer_2" data-name="Layer 2"><g id="Layer_1-2" data-name="Layer 1"><path class="cls-1" d="M95.22,60v-.34c-.09-3.8,0-7.08,0-9.48,0-1,0-1.86,0-2.59a47.61,47.61,0,1,0-47.6,47.6,47.34,47.34,0,0,0,24.28-6.44l23.31,0,.1-7.5C95.46,70,95.46,70,95.22,60M47.61,70.22A22.62,22.62,0,1,1,70.22,47.61,22.64,22.64,0,0,1,47.61,70.22m46-23.64H71.78A24.23,24.23,0,0,0,47.72,23.41V1.58a46.08,46.08,0,0,1,45.9,45"/></g></g></svg>